<svg width="72" height="72" viewBox="0 0 72 72" fill="none" xmlns="http://www.w3.org/2000/svg">
<path d="M36 71.5C55.8822 71.5 72 55.8822 72 36C72 16.1177 55.8822 0 36 0C16.1177 0 0 16.1177 0 36C0 55.8822 16.1177 71.5 36 71.5Z" fill="white"/>
<path d="M64.7402 57.5C62.6802 54.8374 61.1082 51.9401 59.8544 48.8159C58.5915 45.6537 57.7512 42.3208 58.104 39.4768C59.1336 31.0931 55.7504 26.681 55.7504 26.681C55.7504 26.681 52.2224 18.4449 41.778 17.1208C31.3337 15.7967 22.2142 26.681 22.2142 26.681C22.2142 26.681 15.4462 33.1523 7.0654 34.7701C7.0654 34.7701 28.3414 40.2983 28.3054 45.9193C28.2478 54.1842 22.9529 63.8913 22.9529 63.8913C22.9529 63.8913 21.796 65.2158 20.2941 68C25.1383 70.3161 31.5 72 36 71.5C47.808 71.5 58.1752 66.279 64.7402 57.5Z" fill="#1E3A8A"/>
<path d="M31.2069 31.184C31.2069 31.184 33.552 23.976 39.0852 23.976C44.6184 23.976 48.1363 27.9987 48.1363 27.9987C48.1363 27.9987 52.3267 31.351 49.8125 35.7092C47.2982 40.0673 41.9342 40.9054 41.9342 40.9054C41.9342 40.9054 36.2052 41.8875 32.9961 35.4399C32.9448 35.3397 32.9346 35.2235 32.9677 35.1159C33.0008 35.0083 33.0745 34.9179 33.1733 34.8639C33.4375 34.735 33.7212 35.0396 34.5593 36.2132C36.0842 38.348 38.7497 39.0622 38.7497 39.0622C38.7497 39.0622 45.1195 40.0702 45.7898 34.537C46.4601 29.0038 40.5936 27.4968 40.5936 27.4968C40.5936 27.4968 35.064 25.9877 31.2069 31.184Z" fill="#FFFDF8"/>
</svg>
